<mxfile host="app.diagrams.net" modified="2021-09-23T13:00:34.368Z" agent="5.0 (Windows NT 10.0; Win64; x64) AppleWebKit/537.36 (KHTML, like Gecko) Chrome/93.0.4577.82 Safari/537.36" etag="XaUg6M25KTzXBc7nrBgD" version="15.2.9" type="github" pages="2">
  <diagram id="51zYqDY_VMDb0KXjqXFG" name="Indian Ideas">
    <mxGraphModel dx="2862" dy="-1816" grid="1" gridSize="10" guides="1" tooltips="1" connect="1" arrows="1" fold="1" page="1" pageScale="1" pageWidth="827" pageHeight="1169" math="0" shadow="0">
      <root>
        <mxCell id="0" />
        <mxCell id="1" parent="0" />
        <mxCell id="3uolakIjFDOhVFgLM8jF-1" value="&lt;p style=&quot;line-height: 120%&quot;&gt;&lt;/p&gt;&lt;div style=&quot;line-height: 120%&quot;&gt;&lt;div style=&quot;line-height: 14.4px&quot;&gt;&lt;b&gt;&lt;i&gt;Vijayanagar Ideas&lt;/i&gt;&lt;/b&gt;&lt;/div&gt;&lt;div style=&quot;line-height: 14.4px&quot;&gt;&lt;b&gt;&lt;i&gt;Traditions:&lt;/i&gt;&lt;/b&gt;&lt;/div&gt;&lt;div style=&quot;line-height: 14.4px&quot;&gt;+10% Morale of Armies&lt;/div&gt;&lt;div style=&quot;line-height: 14.4px&quot;&gt;+15% Global Institution Spread&lt;/div&gt;&lt;div style=&quot;line-height: 14.4px&quot;&gt;&lt;b&gt;&lt;i&gt;Rajaparshad:&amp;nbsp;&lt;/i&gt;&lt;/b&gt;&lt;/div&gt;&lt;div style=&quot;line-height: 14.4px&quot;&gt;&lt;b&gt;&lt;i&gt;Descr:&lt;/i&gt;&lt;/b&gt;&lt;/div&gt;&lt;div style=&quot;line-height: 120%&quot;&gt;The King is aided by a group of 20 men, all selected from the Brahmins and Kshatriyas, Known as &quot;The Council of Ministers&quot;, and the lesser &quot;Rajaparshad&quot;, these men cover a wide range of judicial and administrative advisory roles, with some even forming important theologians, such as the Astadiggajas, spurred on the Prabandha Age. The Chairman was known as the House Nyak, following a principle of heredity. These men were often 50-70 years old, healthy, and served an important role in the growth of Vijayanagar and assisting the Raja&lt;/div&gt;&lt;div style=&quot;line-height: 14.4px&quot;&gt;-10% Advisor Cost&lt;/div&gt;&lt;div style=&quot;line-height: 14.4px&quot;&gt;+5% Nobles Loyalty Modifier&lt;/div&gt;&lt;div style=&quot;line-height: 14.4px&quot;&gt;+5% Brahmins Loyalty Modifier&lt;/div&gt;&lt;div style=&quot;line-height: 14.4px&quot;&gt;+5% Clergy Loyalty Modifier&lt;/div&gt;&lt;div style=&quot;line-height: 14.4px&quot;&gt;&lt;b&gt;&lt;i&gt;Ameliorating the Kaijeeta Sainya:&lt;/i&gt;&lt;/b&gt;&lt;/div&gt;&lt;div style=&quot;line-height: 14.4px&quot;&gt;&lt;b&gt;&lt;i&gt;Descr:&lt;/i&gt;&lt;/b&gt;&lt;/div&gt;&lt;div style=&quot;line-height: 120%&quot;&gt;The personal army of the Maharaja is bloated and inefficient. Bogged down by petty corruption and rivalries, the personal guard protect only their interests. The issue is that our resources are too great for the men, as they live in luxury with the bonus of court patronage, while numbering a few thousand. We must increase the size of the army, and put them in their place, while also standardizing pay under a monthly salary.&lt;/div&gt;&lt;div style=&quot;line-height: 14.4px&quot;&gt;-15% Regiment Cost&lt;/div&gt;&lt;div style=&quot;line-height: 14.4px&quot;&gt;+5% Recover Morale Speed&lt;/div&gt;&lt;div style=&quot;line-height: 14.4px&quot;&gt;&lt;i&gt;&lt;b&gt;The Bureaucratic Machinery:&lt;/b&gt;&lt;/i&gt;&lt;/div&gt;&lt;div style=&quot;line-height: 14.4px&quot;&gt;&lt;b&gt;&lt;i&gt;Descr:&lt;/i&gt;&lt;/b&gt;&lt;/div&gt;&lt;div style=&quot;line-height: 14.4px&quot;&gt;&lt;font style=&quot;font-size: 10px ; line-height: 120%&quot; color=&quot;#000000&quot;&gt;Many departments for revenue and manpower collection&amp;nbsp;are too small in practice. The Amaranayaka Sainya is short staffed and the Athavane struggles to keep up with the ever expanding Amara&#39;s. In order to save our treasury we must ensure that our revenue and recruitment stays streamlined and efficient&lt;/font&gt;&lt;br&gt;&lt;/div&gt;&lt;div style=&quot;line-height: 14.4px&quot;&gt;+10% Global Tax Modifier&lt;/div&gt;&lt;div style=&quot;line-height: 14.4px&quot;&gt;+10% Manpower Recovery Speed&lt;/div&gt;&lt;div style=&quot;line-height: 14.4px&quot;&gt;&lt;b&gt;&lt;i&gt;Amarams:&lt;/i&gt;&lt;/b&gt;&lt;/div&gt;&lt;div style=&quot;line-height: 14.4px&quot;&gt;&lt;b&gt;&lt;i&gt;Descr:&amp;nbsp;&lt;/i&gt;&lt;/b&gt;&lt;/div&gt;&lt;div style=&quot;line-height: 14.4px&quot;&gt;&lt;font style=&quot;font-size: 10px ; line-height: 120%&quot; color=&quot;#000000&quot;&gt;Many generals feel that the bonuses that come with being a warrior are just not great enough. Nayak&#39;s aren&#39;t plentiful and the ever increasing taxes cause many to earn less and less While Vjayanagar has a strong martial tradition, granting even more land to those who prove their merit&amp;nbsp;shall prove worthwhile.&lt;/font&gt;&lt;/div&gt;&lt;div style=&quot;line-height: 14.4px&quot;&gt;+0.5 Yearly Army Tradition&lt;/div&gt;&lt;div style=&quot;line-height: 14.4px&quot;&gt;+1 Land Leader Shock&lt;/div&gt;&lt;div style=&quot;line-height: 14.4px&quot;&gt;&lt;b&gt;&lt;i&gt;Promoting Tamil Co-operation:&lt;/i&gt;&lt;/b&gt;&lt;/div&gt;&lt;div style=&quot;line-height: 14.4px&quot;&gt;&lt;b&gt;&lt;i&gt;Descr:&lt;/i&gt;&lt;/b&gt;&lt;/div&gt;&lt;div style=&quot;line-height: 14.4px&quot;&gt;&lt;font style=&quot;font-size: 10px ; line-height: 100%&quot; color=&quot;#000000&quot;&gt;The Tamils are a large, industrious community that face into the Bay of Bengal. Their links to the Arabian and Indonesian world, as well as a near monopoly on Indian Spices, make them clear allies. No Sultanate, Kingdom or Republic has ever conquered the Tamil Kings, and the idea of nationalism spurring from the time of the Chola make them hard to subjugate. Mutual dependency appears to be the best outcome&lt;/font&gt;&lt;br&gt;&lt;/div&gt;&lt;div style=&quot;line-height: 14.4px&quot;&gt;+15% Provincial Trade Power&lt;/div&gt;&lt;div style=&quot;line-height: 14.4px&quot;&gt;&lt;b&gt;&lt;i&gt;Establishing a Navigadaprabhu:&lt;/i&gt;&lt;/b&gt;&lt;/div&gt;&lt;div style=&quot;line-height: 14.4px&quot;&gt;&lt;b&gt;&lt;i&gt;Descr:&lt;/i&gt;&lt;/b&gt;&lt;/div&gt;&lt;div style=&quot;line-height: 14.4px&quot;&gt;&lt;font style=&quot;font-size: 10px&quot; color=&quot;#000000&quot;&gt;Our navy is in a dire state. With a non-existent heavy armada and a woefully underfunded department, finding intelligant admirals appears harder and harder. However, the growth of trade is important enough to establish an office that can oversee our merchant navy, and keep piracy at bay.&lt;/font&gt;&lt;br&gt;&lt;/div&gt;&lt;div style=&quot;line-height: 14.4px&quot;&gt;+15% Ship Trade Power&lt;/div&gt;&lt;div style=&quot;line-height: 14.4px&quot;&gt;&lt;b&gt;&lt;i&gt;Raya Gopurams:&lt;/i&gt;&lt;/b&gt;&lt;/div&gt;&lt;div style=&quot;line-height: 14.4px&quot;&gt;&lt;b&gt;&lt;i&gt;Descr:&lt;/i&gt;&lt;/b&gt;&lt;/div&gt;&lt;div style=&quot;line-height: 14.4px&quot;&gt;&lt;font color=&quot;#000000&quot;&gt;&lt;font face=&quot;roboto, sans-serif&quot; style=&quot;font-size: 10px&quot;&gt;Gigantic&lt;/font&gt;&lt;font face=&quot;roboto, sans-serif&quot; style=&quot;font-size: 10px&quot;&gt;&lt;span&gt;&amp;nbsp;temple complexes dot the southern&amp;nbsp;subcontinent with great archways in dedication to the gods of Hinduism. The benefit of following a polytheistic religion means that dedication to Krishna, Ganesha, Sirva and others is more diverse and up to interpretation. It is with this freedom that each complex will be preceded by Raya&amp;nbsp;&lt;/span&gt;&lt;/font&gt;&lt;font face=&quot;roboto, sans-serif&quot; style=&quot;font-size: 10px&quot;&gt;Gopurams&lt;/font&gt;&lt;/font&gt;&lt;br&gt;&lt;/div&gt;&lt;div style=&quot;line-height: 14.4px&quot;&gt;+2 Tolerance of the True Faith&lt;/div&gt;&lt;div style=&quot;line-height: 14.4px&quot;&gt;&lt;b&gt;&lt;i&gt;Ambitions:&lt;/i&gt;&lt;/b&gt;&lt;/div&gt;&lt;div style=&quot;line-height: 14.4px&quot;&gt;+25% Land Forcelimit Modifier&lt;/div&gt;&lt;/div&gt;&lt;p&gt;&lt;/p&gt;" style="whiteSpace=wrap;html=1;fillColor=#f5f5f5;strokeColor=#666666;fontSize=10;align=left;verticalAlign=top;fontColor=#333333;" parent="1" vertex="1">
          <mxGeometry x="-560" y="2360" width="400" height="1160" as="geometry" />
        </mxCell>
        <mxCell id="3uolakIjFDOhVFgLM8jF-2" value="&lt;p style=&quot;line-height: 120%&quot;&gt;&lt;/p&gt;&lt;div style=&quot;font-size: 10px ; line-height: 14.4px&quot;&gt;&lt;span style=&quot;line-height: 14.4px ; font-size: 10px&quot;&gt;&lt;b&gt;Delhi Ideas&lt;/b&gt;&lt;br style=&quot;font-size: 10px&quot;&gt;&lt;b&gt;&lt;i&gt;Traditions:&lt;/i&gt;&lt;/b&gt;&lt;/span&gt;&lt;/div&gt;&lt;div style=&quot;font-size: 10px ; line-height: 14.4px&quot;&gt;+20% Cavalry Combat Ability&lt;/div&gt;&lt;div style=&quot;font-size: 10px ; line-height: 14.4px&quot;&gt;+20% Governing Capacity Modifier&lt;/div&gt;&lt;div style=&quot;font-size: 10px ; line-height: 14.4px&quot;&gt;&lt;b&gt;&lt;i&gt;Streamlined Diwan:&amp;nbsp;&lt;/i&gt;&lt;/b&gt;&lt;/div&gt;&lt;div style=&quot;font-size: 10px ; line-height: 14.4px&quot;&gt;&lt;b&gt;&lt;i&gt;Descr:&lt;/i&gt;&lt;/b&gt;&lt;/div&gt;&lt;font style=&quot;font-size: 10px&quot; color=&quot;#000000&quot;&gt;Delhi is unique, in that its monarchy is highly centralised and bureaucratic.&amp;nbsp;&lt;font style=&quot;font-size: 10px&quot;&gt;&lt;span style=&quot;box-sizing: border-box ; font-family: &amp;#34;roboto&amp;#34; , sans-serif&quot;&gt;There were many departments and officials who helped the Sultan in administration. The&amp;nbsp;&lt;/span&gt;&lt;span style=&quot;box-sizing: border-box ; font-family: &amp;#34;roboto&amp;#34; , sans-serif&quot;&gt;Naib&lt;/span&gt;&lt;span style=&quot;box-sizing: border-box ; font-family: &amp;#34;roboto&amp;#34; , sans-serif&quot;&gt;&amp;nbsp;was the most influential post and virtually enjoyed all the powers of the Sultan. He had control over all the other departments. The post of&lt;/span&gt;&lt;span style=&quot;box-sizing: border-box ; font-family: &amp;#34;roboto&amp;#34; , sans-serif&quot;&gt;&amp;nbsp;Wazir&lt;/span&gt;&lt;span style=&quot;box-sizing: border-box ; font-family: &amp;#34;roboto&amp;#34; , sans-serif&quot;&gt;&amp;nbsp;was next to the Naib and he headed the finance department known as the&amp;nbsp;&lt;/span&gt;&lt;span style=&quot;box-sizing: border-box ; font-family: &amp;#34;roboto&amp;#34; , sans-serif&quot;&gt;Diwan-i-Wizarat&lt;/span&gt;&lt;span style=&quot;box-sizing: border-box ; font-family: &amp;#34;roboto&amp;#34; , sans-serif&quot;&gt;. An Auditor-General for examining expenditure and an Accountant General for checking income worked under the Wazir.&amp;nbsp;&lt;/span&gt;&lt;/font&gt;&lt;span style=&quot;box-sizing: border-box ; font-family: &amp;#34;roboto&amp;#34; , sans-serif&quot;&gt;The department of religious affairs,&amp;nbsp;&lt;/span&gt;&lt;span style=&quot;box-sizing: border-box ; font-family: &amp;#34;roboto&amp;#34; , sans-serif&quot;&gt;Diwan-i-Risalat&lt;/span&gt;&lt;span style=&quot;box-sizing: border-box ; font-family: &amp;#34;roboto&amp;#34; , sans-serif&quot;&gt;&amp;nbsp;dealt with pious foundations and granted stipends to deserving scholars and men of piety. This department granted funds for the construction of madrasas, tombs and mosques. It was headed by&amp;nbsp;&lt;/span&gt;&lt;span style=&quot;box-sizing: border-box ; font-family: &amp;#34;roboto&amp;#34; , sans-serif&quot;&gt;Chief Sadr who also functioned as Chief Qazi&lt;/span&gt;&lt;span style=&quot;box-sizing: border-box ; font-family: &amp;#34;roboto&amp;#34; , sans-serif&quot;&gt;, the head of the judicial system. Other judges and Qazis were appointed in different parts of the Sultanate. This administrative system differed Delhi from traditional, provincial kingdoms, resulting in a highly centralised form of government, subservient to the Sultan&lt;/span&gt;&lt;/font&gt;&lt;div style=&quot;line-height: 14.4px&quot;&gt;+1 Possible Admin Policy&lt;/div&gt;&lt;div style=&quot;line-height: 14.4px&quot;&gt;-15% Advisor Cost&lt;/div&gt;&lt;div style=&quot;line-height: 14.4px&quot;&gt;&lt;span&gt;&lt;i&gt;&lt;b&gt;Organised Through Decimal Heirarchies&lt;/b&gt;&lt;/i&gt;&lt;i style=&quot;font-weight: bold&quot;&gt;:&lt;/i&gt;&lt;/span&gt;&lt;/div&gt;&lt;div style=&quot;line-height: 14.4px&quot;&gt;&lt;b&gt;&lt;i&gt;Descr:&amp;nbsp;&lt;/i&gt;&lt;/b&gt;&lt;/div&gt;&lt;div style=&quot;line-height: 120%&quot;&gt;&lt;span style=&quot;color: rgb(0 , 0 , 0)&quot;&gt;The organisation of the army and the division of ranks rested primarily on decimal system. In the cavalry, ten horse-men constituted a unit whose officer was called&amp;nbsp;&lt;/span&gt;&lt;span style=&quot;color: rgb(0 , 0 , 0) ; margin: 0px ; padding: 0px ; border: 0px ; vertical-align: baseline&quot;&gt;Sar-i-Khail&lt;/span&gt;&lt;span style=&quot;color: rgb(0 , 0 , 0)&quot;&gt;. There was a&amp;nbsp;&lt;/span&gt;&lt;span style=&quot;color: rgb(0 , 0 , 0) ; margin: 0px ; padding: 0px ; border: 0px ; vertical-align: baseline&quot;&gt;Sipahsalar&lt;/span&gt;&lt;span style=&quot;color: rgb(0 , 0 , 0)&quot;&gt;&amp;nbsp;commanding units of ten&amp;nbsp;&lt;/span&gt;&lt;span style=&quot;color: rgb(0 , 0 , 0) ; margin: 0px ; padding: 0px ; border: 0px ; vertical-align: baseline&quot;&gt;Sar-i-Khails&lt;/span&gt;&lt;span style=&quot;color: rgb(0 , 0 , 0)&quot;&gt;, an&amp;nbsp;&lt;/span&gt;&lt;span style=&quot;color: rgb(0 , 0 , 0) ; margin: 0px ; padding: 0px ; border: 0px ; vertical-align: baseline&quot;&gt;Amir&lt;/span&gt;&lt;span style=&quot;color: rgb(0 , 0 , 0)&quot;&gt;&amp;nbsp;over units of ten&amp;nbsp;&lt;/span&gt;&lt;span style=&quot;color: rgb(0 , 0 , 0) ; margin: 0px ; padding: 0px ; border: 0px ; vertical-align: baseline&quot;&gt;Sipahsalars&lt;/span&gt;&lt;span style=&quot;color: rgb(0 , 0 , 0)&quot;&gt;&amp;nbsp;, a&amp;nbsp;&lt;/span&gt;&lt;span style=&quot;color: rgb(0 , 0 , 0) ; margin: 0px ; padding: 0px ; border: 0px ; vertical-align: baseline&quot;&gt;Malik&lt;/span&gt;&lt;span style=&quot;color: rgb(0 , 0 , 0)&quot;&gt;&amp;nbsp;over units of ten&amp;nbsp;&lt;/span&gt;&lt;span style=&quot;color: rgb(0 , 0 , 0) ; margin: 0px ; padding: 0px ; border: 0px ; vertical-align: baseline&quot;&gt;Amirs&lt;/span&gt;&lt;span style=&quot;color: rgb(0 , 0 , 0)&quot;&gt;&amp;nbsp;and a&amp;nbsp;&lt;/span&gt;&lt;span style=&quot;color: rgb(0 , 0 , 0) ; margin: 0px ; padding: 0px ; border: 0px ; vertical-align: baseline&quot;&gt;Khan&lt;/span&gt;&lt;span style=&quot;color: rgb(0 , 0 , 0)&quot;&gt;&amp;nbsp;over units of ten&amp;nbsp;&lt;/span&gt;&lt;span style=&quot;color: rgb(0 , 0 , 0) ; margin: 0px ; padding: 0px ; border: 0px ; vertical-align: baseline&quot;&gt;Maliks&lt;/span&gt;&lt;span style=&quot;color: rgb(0 , 0 , 0)&quot;&gt;. The decimal system allowed for ranks to be rigid and well organised.&lt;/span&gt;&lt;br&gt;&lt;/div&gt;&lt;div style=&quot;line-height: 120%&quot;&gt;&lt;span style=&quot;color: rgb(0 , 0 , 0)&quot;&gt;+1 Leaders without Upkeep&lt;/span&gt;&lt;/div&gt;&lt;div style=&quot;line-height: 120%&quot;&gt;&lt;font color=&quot;#000000&quot;&gt;&lt;b&gt;&lt;i&gt;Promotion of Artisanry Through Karkhanas:&lt;/i&gt;&lt;/b&gt;&lt;/font&gt;&lt;/div&gt;&lt;div style=&quot;line-height: 120%&quot;&gt;&lt;font color=&quot;#000000&quot;&gt;&lt;b&gt;&lt;i&gt;Descr:&lt;/i&gt;&lt;/b&gt;&lt;/font&gt;&lt;/div&gt;&lt;div style=&quot;line-height: 120%&quot;&gt;&lt;font color=&quot;#000000&quot;&gt;&lt;span style=&quot;font-size: 10px&quot;&gt;There were, during the Delhi Sultanate period, two types of industries: those that were under the State patronage and those that were completely private. The Sultans had their own&amp;nbsp;&lt;/span&gt;&lt;span style=&quot;font-size: 10px ; box-sizing: border-box&quot;&gt;&lt;span style=&quot;box-sizing: border-box&quot;&gt;Karkhanas&lt;/span&gt;&amp;nbsp;in Delhi&lt;/span&gt;&lt;span style=&quot;font-size: 10px&quot;&gt;&amp;nbsp;in which many&amp;nbsp;&lt;/span&gt;&lt;span style=&quot;font-size: 10px ; box-sizing: border-box&quot;&gt;thousands of weavers&lt;/span&gt;&lt;span style=&quot;font-size: 10px&quot;&gt;&amp;nbsp;were employed to produce silk and other stuffs; in these&amp;nbsp;&lt;/span&gt;&lt;span style=&quot;font-size: 10px ; box-sizing: border-box&quot;&gt;&lt;span style=&quot;box-sizing: border-box&quot;&gt;Karkhanas&lt;/span&gt;&amp;nbsp;thousands of yards of silk and cotton&lt;/span&gt;&lt;span style=&quot;font-size: 10px&quot;&gt;&amp;nbsp;cloth were produced every year for the preparation of&amp;nbsp;&lt;/span&gt;&lt;span style=&quot;font-size: 10px ; box-sizing: border-box&quot;&gt;robes of honour&lt;/span&gt;&lt;span style=&quot;font-size: 10px&quot;&gt;. The other kind of workshops, were for&amp;nbsp;&lt;/span&gt;&lt;span style=&quot;font-size: 10px ; box-sizing: border-box&quot;&gt;gold and silver articles and embroidery&lt;/span&gt;&lt;span style=&quot;font-size: 10px&quot;&gt;, and so on. As far as the private industries was concerned, the most important among them were the textile industry,&lt;/span&gt;&lt;span style=&quot;font-size: 10px&quot;&gt;&amp;nbsp;that included in itself manufacturing of cloth,&amp;nbsp;&lt;/span&gt;&lt;span style=&quot;box-sizing: border-box&quot;&gt;woollen&amp;nbsp;and silk cloth, sugar industry&lt;/span&gt;&lt;span style=&quot;font-size: 10px&quot;&gt;, paper industry and more. The textile industry has brought great riches, and exemplify the wealth that India shows. It is important that these Kharkanas are patronised and expanded, lest we lose our most luxurious exports.&amp;nbsp;&lt;/span&gt;&lt;/font&gt;&lt;/div&gt;&lt;div style=&quot;line-height: 120%&quot;&gt;&lt;font color=&quot;#000000&quot;&gt;+10% Trade Efficiency&lt;/font&gt;&lt;/div&gt;&lt;div style=&quot;line-height: 120%&quot;&gt;&lt;span style=&quot;line-height: 120%&quot;&gt;&lt;font color=&quot;#000000&quot; style=&quot;font-size: 10px&quot;&gt;&lt;b&gt;&lt;i&gt;Establishing a Permanent Pay-Roll:&lt;/i&gt;&lt;/b&gt;&lt;/font&gt;&lt;/span&gt;&lt;/div&gt;&lt;div style=&quot;line-height: 120%&quot;&gt;&lt;span style=&quot;line-height: 120%&quot;&gt;&lt;font color=&quot;#000000&quot; style=&quot;font-size: 10px&quot;&gt;&lt;b&gt;&lt;i&gt;Descr:&lt;/i&gt;&lt;/b&gt;&lt;/font&gt;&lt;/span&gt;&lt;/div&gt;&lt;div style=&quot;line-height: 120%&quot;&gt;&lt;span style=&quot;line-height: 120%&quot;&gt;&lt;font color=&quot;#000000&quot;&gt;&lt;span style=&quot;font-family: sans-serif&quot;&gt;New tax policies and spending controls began strengthening our treasury to pay the keep of the growing army; introducing heavier price controls on all agriculture produce and goods in the kingdom, as well as controls on where, how, and by whom these goods could be sold. Markets called Shahana-i-Mandi were created where&lt;/span&gt;&lt;span style=&quot;font-family: sans-serif&quot;&gt;&amp;nbsp;Muslim merchants were granted exclusive permits and monopoly in these &quot;Mandis&quot; to buy and resell at official prices. No one other than these merchants could buy from farmers or sell in cities.&lt;/span&gt;&lt;span style=&quot;font-family: sans-serif&quot;&gt;&amp;nbsp;Taxes collected in the form of grain were stored in the kingdom&#39;s storage. During famines that followed, these granaries ensured sufficient food for the army.&lt;/span&gt;&lt;span style=&quot;font-family: sans-serif&quot;&gt;&amp;nbsp;These Mandis help us feed and replenish our armies by promising exclusive markets and an abundance of food to spend their plunder on.&amp;nbsp;&lt;/span&gt;&lt;/font&gt;&lt;/span&gt;&lt;/div&gt;&lt;div style=&quot;line-height: 120%&quot;&gt;&lt;font color=&quot;#000000&quot; face=&quot;sans-serif&quot;&gt;-25% Drill Decay Modifier&lt;/font&gt;&lt;/div&gt;&lt;div style=&quot;line-height: 120%&quot;&gt;&lt;font color=&quot;#000000&quot; face=&quot;sans-serif&quot;&gt;+15% Land Forcelimit Modifier&lt;/font&gt;&lt;/div&gt;&lt;div style=&quot;line-height: 120%&quot;&gt;&lt;font color=&quot;#000000&quot; face=&quot;sans-serif&quot;&gt;&lt;b&gt;&lt;i&gt;A Two Pronged Defence:&lt;/i&gt;&lt;/b&gt;&lt;/font&gt;&lt;/div&gt;&lt;div style=&quot;line-height: 120%&quot;&gt;&lt;font color=&quot;#000000&quot; face=&quot;sans-serif&quot;&gt;&lt;b&gt;&lt;i&gt;Descr:&lt;/i&gt;&lt;/b&gt;&lt;/font&gt;&lt;/div&gt;&lt;div style=&quot;line-height: 120%&quot;&gt;&lt;font color=&quot;#000000&quot; face=&quot;sans-serif&quot;&gt;Balban&#39;s military reforms and expertise was one of the greatest reasons that India was spared from the Mongol yoke. Embassies were exchanged and established between the Sultanate and the Hordes, in order to establish fast communication in case of victory, as well as vast defensive lines across areas like Lahore and Sunam. These lines helped defend vital chokepoints by the Hindu Kush mountains, and large metropolises such as the capital itself. Our recent defeats have been noted as examples on why we must return back to a defensive approach, before and ambitious Timurid, Mongol or Afghan to take control of any local chaos.&lt;/font&gt;&lt;/div&gt;&lt;div style=&quot;line-height: 120%&quot;&gt;&lt;font color=&quot;#000000&quot; face=&quot;sans-serif&quot;&gt;+1 Diplomatic Reputation&lt;/font&gt;&lt;/div&gt;&lt;div style=&quot;line-height: 120%&quot;&gt;&lt;font color=&quot;#000000&quot; face=&quot;sans-serif&quot;&gt;+20% Fort Defence&lt;/font&gt;&lt;/div&gt;&lt;div style=&quot;line-height: 120%&quot;&gt;&lt;font color=&quot;#000000&quot; face=&quot;sans-serif&quot;&gt;&lt;b&gt;&lt;i&gt;Away with Military Tribalism:&lt;/i&gt;&lt;/b&gt;&lt;/font&gt;&lt;/div&gt;&lt;div style=&quot;line-height: 120%&quot;&gt;&lt;font color=&quot;#000000&quot; face=&quot;sans-serif&quot;&gt;&lt;b&gt;&lt;i&gt;Descr:&lt;/i&gt;&lt;/b&gt;&lt;/font&gt;&lt;/div&gt;&lt;div style=&quot;line-height: 120%&quot;&gt;&lt;font color=&quot;#000000&quot; face=&quot;sans-serif&quot;&gt;Despite the reforms and progress made with both previous and present Sultans, there is still a lack of meritocracy and professionalism in the army. A strong and efficient organisation of the military means nothing when positions are generally hereditary and based off of autocratic patronage. Balban&#39;s idea of individual excellence presented a strong foundation of how we can approach the problem. By forcing soldiers to be the best they can possibly be, while utilising rigorous training methods, we can finally transition to Khasah Khail infantry&amp;nbsp;corps.&lt;/font&gt;&lt;/div&gt;&lt;div style=&quot;line-height: 120%&quot;&gt;&lt;font color=&quot;#000000&quot; face=&quot;sans-serif&quot;&gt;+5% Discipline&lt;/font&gt;&lt;/div&gt;&lt;div style=&quot;line-height: 120%&quot;&gt;&lt;div style=&quot;line-height: 12px&quot;&gt;&lt;font color=&quot;#000000&quot;&gt;&lt;b&gt;&lt;i&gt;Achievements of the Provinces:&lt;/i&gt;&lt;/b&gt;&lt;/font&gt;&lt;/div&gt;&lt;div style=&quot;line-height: 12px&quot;&gt;&lt;font color=&quot;#000000&quot;&gt;&lt;b&gt;&lt;i&gt;Descr:&amp;nbsp;&lt;/i&gt;&lt;/b&gt;&lt;/font&gt;&lt;/div&gt;&lt;div style=&quot;line-height: 12px&quot;&gt;&amp;nbsp;&lt;/div&gt;&lt;div style=&quot;line-height: 12px&quot;&gt;-1% Prestige Decay&lt;/div&gt;&lt;/div&gt;&lt;div style=&quot;line-height: 120%&quot;&gt;&lt;font color=&quot;#000000&quot; face=&quot;sans-serif&quot;&gt;&lt;b&gt;&lt;i&gt;Ambitions:&lt;/i&gt;&lt;/b&gt;&lt;/font&gt;&lt;/div&gt;&lt;div style=&quot;line-height: 120%&quot;&gt;&lt;font color=&quot;#000000&quot; face=&quot;sans-serif&quot;&gt;+1 Possible Policy&lt;/font&gt;&lt;/div&gt;&lt;p&gt;&lt;/p&gt;" style="whiteSpace=wrap;html=1;fillColor=#f5f5f5;strokeColor=#666666;fontSize=10;align=left;verticalAlign=top;fontColor=#333333;" parent="1" vertex="1">
          <mxGeometry x="-1040" y="2360" width="400" height="1160" as="geometry" />
        </mxCell>
        <mxCell id="3uolakIjFDOhVFgLM8jF-3" value="&lt;p style=&quot;line-height: 144%&quot;&gt;&lt;/p&gt;&lt;div style=&quot;font-size: 10px ; line-height: 14.4px&quot;&gt;&lt;span style=&quot;line-height: 14.4px ; font-size: 10px&quot;&gt;&lt;b&gt;Bengal Ideas&amp;nbsp;&lt;/b&gt;&lt;br style=&quot;font-size: 10px&quot;&gt;&lt;b&gt;&lt;i&gt;Traditions:&lt;/i&gt;&lt;/b&gt;&lt;/span&gt;&lt;/div&gt;&lt;div style=&quot;font-size: 10px ; line-height: 14.4px&quot;&gt;-7.5% Idea Cost&lt;/div&gt;&lt;div style=&quot;font-size: 10px ; line-height: 14.4px&quot;&gt;+20% National Manpower Modifier&lt;/div&gt;&lt;div style=&quot;font-size: 10px ; line-height: 14.4px&quot;&gt;&lt;b&gt;&lt;i&gt;Foundation of Bangalah:&amp;nbsp;&lt;/i&gt;&lt;/b&gt;&lt;/div&gt;&lt;div style=&quot;font-size: 10px ; line-height: 14.4px&quot;&gt;&lt;b&gt;&lt;i&gt;Descr:&lt;/i&gt;&lt;/b&gt;&lt;/div&gt;&lt;font color=&quot;#000000&quot;&gt;&amp;nbsp;&lt;/font&gt;&lt;br&gt;&lt;div style=&quot;line-height: 14.4px&quot;&gt;-15% Core Creation Cost&lt;/div&gt;&lt;div style=&quot;line-height: 14.4px&quot;&gt;+1 Yearly Legitimacy&lt;/div&gt;&lt;div style=&quot;line-height: 14.4px&quot;&gt;&lt;b&gt;&lt;i&gt;Heterogenic Court:&lt;/i&gt;&lt;/b&gt;&lt;/div&gt;&lt;div style=&quot;line-height: 14.4px&quot;&gt;&lt;b&gt;&lt;i&gt;Descr:&lt;/i&gt;&lt;/b&gt;&lt;/div&gt;&lt;div style=&quot;line-height: 14.4px&quot;&gt;&lt;b&gt;&lt;i&gt;&lt;br&gt;&lt;/i&gt;&lt;/b&gt;&lt;/div&gt;&lt;div style=&quot;line-height: 14.4px&quot;&gt;+2 Maximum Promoted Cultures&lt;/div&gt;&lt;div style=&quot;line-height: 14.4px&quot;&gt;&lt;i&gt;&lt;b&gt;The Green Confluence:&lt;/b&gt;&lt;/i&gt;&lt;/div&gt;&lt;div style=&quot;line-height: 14.4px&quot;&gt;&lt;b&gt;&lt;i&gt;Descr:&amp;nbsp;&lt;/i&gt;&lt;/b&gt;&lt;/div&gt;&lt;div style=&quot;line-height: 120%&quot;&gt;&lt;font color=&quot;#000000&quot;&gt;&amp;nbsp;&lt;/font&gt;&lt;/div&gt;&lt;div style=&quot;line-height: 120%&quot;&gt;&lt;span style=&quot;color: rgb(0 , 0 , 0)&quot;&gt;+15% Global Trade Goods Size Modifier&lt;/span&gt;&lt;/div&gt;&lt;div style=&quot;line-height: 120%&quot;&gt;&lt;font color=&quot;#000000&quot;&gt;&lt;b&gt;&lt;i&gt;On the Advent of&amp;nbsp;&lt;/i&gt;&lt;/b&gt;&lt;/font&gt;&lt;span&gt;&lt;i&gt;&lt;font color=&quot;#000000&quot;&gt;&lt;b&gt;Bombards&lt;/b&gt;&lt;/font&gt;&lt;b style=&quot;color: rgb(0 , 0 , 0)&quot;&gt;:&lt;/b&gt;&lt;/i&gt;&lt;/span&gt;&lt;/div&gt;&lt;div style=&quot;line-height: 120%&quot;&gt;&lt;font color=&quot;#000000&quot;&gt;&lt;b&gt;&lt;i&gt;Descr:&lt;/i&gt;&lt;/b&gt;&lt;/font&gt;&lt;/div&gt;&lt;div style=&quot;line-height: 120%&quot;&gt;&lt;br&gt;&lt;/div&gt;&lt;div style=&quot;line-height: 120%&quot;&gt;&lt;div style=&quot;line-height: 12px&quot;&gt;&lt;font color=&quot;#000000&quot;&gt;-10% Artillery Cost&lt;/font&gt;&lt;/div&gt;&lt;div style=&quot;line-height: 12px&quot;&gt;&lt;font color=&quot;#000000&quot;&gt;+10% Artillery Damage from Backrow&lt;/font&gt;&lt;/div&gt;&lt;/div&gt;&lt;div style=&quot;line-height: 120%&quot;&gt;&lt;span style=&quot;line-height: 120%&quot;&gt;&lt;font color=&quot;#000000&quot; style=&quot;font-size: 10px&quot;&gt;&lt;b&gt;&lt;i&gt;Royal Takas:&lt;/i&gt;&lt;/b&gt;&lt;/font&gt;&lt;/span&gt;&lt;/div&gt;&lt;div style=&quot;line-height: 120%&quot;&gt;&lt;span style=&quot;line-height: 120%&quot;&gt;&lt;font color=&quot;#000000&quot; style=&quot;font-size: 10px&quot;&gt;&lt;b&gt;&lt;i&gt;Descr:&lt;/i&gt;&lt;/b&gt;&lt;/font&gt;&lt;/span&gt;&lt;/div&gt;&lt;div style=&quot;line-height: 120%&quot;&gt;&lt;br&gt;&lt;/div&gt;&lt;div style=&quot;line-height: 120%&quot;&gt;&lt;font color=&quot;#000000&quot; face=&quot;sans-serif&quot;&gt;+10% Global Tax Modifier&lt;/font&gt;&lt;/div&gt;&lt;div style=&quot;line-height: 120%&quot;&gt;&lt;font color=&quot;#000000&quot; face=&quot;sans-serif&quot;&gt;-0.5 Interest Per Annum&lt;/font&gt;&lt;/div&gt;&lt;div style=&quot;line-height: 120%&quot;&gt;&lt;font color=&quot;#000000&quot; face=&quot;sans-serif&quot;&gt;&lt;b&gt;&lt;i&gt;World Renowned Sericulture:&lt;/i&gt;&lt;/b&gt;&lt;/font&gt;&lt;/div&gt;&lt;div style=&quot;line-height: 120%&quot;&gt;&lt;font color=&quot;#000000&quot; face=&quot;sans-serif&quot;&gt;&lt;b&gt;&lt;i&gt;Descr:&lt;/i&gt;&lt;/b&gt;&lt;/font&gt;&lt;/div&gt;&lt;div style=&quot;line-height: 120%&quot;&gt;&lt;br&gt;&lt;/div&gt;&lt;div style=&quot;line-height: 120%&quot;&gt;&lt;font color=&quot;#000000&quot; face=&quot;sans-serif&quot;&gt;+15% Trade Efficiency&amp;nbsp;&lt;/font&gt;&lt;/div&gt;&lt;div style=&quot;line-height: 120%&quot;&gt;&lt;font color=&quot;#000000&quot; face=&quot;sans-serif&quot;&gt;+10% Production Efficiency&lt;/font&gt;&lt;/div&gt;&lt;div style=&quot;line-height: 120%&quot;&gt;&lt;font color=&quot;#000000&quot; face=&quot;sans-serif&quot;&gt;&lt;b&gt;&lt;i&gt;The Birth of A Revolution&lt;/i&gt;&lt;/b&gt;&lt;/font&gt;&lt;/div&gt;&lt;div style=&quot;line-height: 120%&quot;&gt;&lt;font color=&quot;#000000&quot; face=&quot;sans-serif&quot;&gt;&lt;b&gt;&lt;i&gt;Descr:&lt;/i&gt;&lt;/b&gt;&lt;/font&gt;&lt;/div&gt;&lt;div style=&quot;line-height: 120%&quot;&gt;&lt;br&gt;&lt;/div&gt;&lt;div style=&quot;line-height: 120%&quot;&gt;&lt;font color=&quot;#000000&quot; face=&quot;sans-serif&quot;&gt;-10% Global Development Cost&lt;/font&gt;&lt;/div&gt;&lt;div style=&quot;line-height: 120%&quot;&gt;&lt;font color=&quot;#000000&quot; face=&quot;sans-serif&quot;&gt;&lt;b&gt;&lt;i&gt;Ambitions:&lt;/i&gt;&lt;/b&gt;&lt;/font&gt;&lt;/div&gt;&lt;div style=&quot;line-height: 120%&quot;&gt;&lt;font color=&quot;#000000&quot; face=&quot;sans-serif&quot;&gt;+1 Merchants&lt;/font&gt;&lt;/div&gt;&lt;p&gt;&lt;/p&gt;" style="whiteSpace=wrap;html=1;fillColor=#f5f5f5;strokeColor=#666666;fontSize=10;align=left;verticalAlign=top;fontColor=#333333;" parent="1" vertex="1">
          <mxGeometry x="-80" y="2360" width="400" height="1160" as="geometry" />
        </mxCell>
        <mxCell id="3uolakIjFDOhVFgLM8jF-4" value="&lt;p style=&quot;line-height: 120%&quot;&gt;&lt;/p&gt;&lt;div style=&quot;font-size: 10px ; line-height: 14.4px&quot;&gt;&lt;span style=&quot;line-height: 14.4px ; font-size: 10px&quot;&gt;&lt;b&gt;Jaunpur Ideas&lt;/b&gt;&lt;br style=&quot;font-size: 10px&quot;&gt;&lt;b&gt;&lt;i&gt;Traditions:&lt;/i&gt;&lt;/b&gt;&lt;/span&gt;&lt;/div&gt;&lt;div style=&quot;font-size: 10px ; line-height: 14.4px&quot;&gt;-10% Admin Tech Cost Modifier&lt;/div&gt;&lt;div style=&quot;font-size: 10px ; line-height: 14.4px&quot;&gt;+15% Manpower Recovery Speed&lt;/div&gt;&lt;div style=&quot;font-size: 10px ; line-height: 14.4px&quot;&gt;&lt;b&gt;&lt;i&gt;Sangitasiromani:&amp;nbsp;&lt;/i&gt;&lt;/b&gt;&lt;/div&gt;&lt;div style=&quot;font-size: 10px ; line-height: 14.4px&quot;&gt;&lt;b&gt;&lt;i&gt;Descr:&lt;/i&gt;&lt;/b&gt;&lt;/div&gt;&lt;div style=&quot;font-size: 10px ; line-height: 14.4px&quot;&gt;&lt;b&gt;&lt;i&gt;&lt;br&gt;&lt;/i&gt;&lt;/b&gt;&lt;/div&gt;&lt;div style=&quot;line-height: 14.4px&quot;&gt;-5% Idea Cost&lt;/div&gt;&lt;div style=&quot;line-height: 14.4px&quot;&gt;&lt;b&gt;&lt;i&gt;March on Delhi:&lt;/i&gt;&lt;/b&gt;&lt;/div&gt;&lt;div style=&quot;line-height: 14.4px&quot;&gt;&lt;b&gt;&lt;i&gt;Descr:&amp;nbsp;&lt;/i&gt;&lt;/b&gt;&lt;/div&gt;&lt;div style=&quot;line-height: 120%&quot;&gt;&lt;br&gt;&lt;/div&gt;&lt;div style=&quot;line-height: 120%&quot;&gt;&lt;span style=&quot;color: rgb(0 , 0 , 0)&quot;&gt;+10% Morale of Armies&lt;/span&gt;&lt;/div&gt;&lt;div style=&quot;line-height: 120%&quot;&gt;&lt;font color=&quot;#000000&quot;&gt;&lt;b&gt;&lt;i&gt;Treatises on Theology and Law:&lt;/i&gt;&lt;/b&gt;&lt;/font&gt;&lt;/div&gt;&lt;div style=&quot;line-height: 120%&quot;&gt;&lt;font color=&quot;#000000&quot;&gt;&lt;b&gt;&lt;i&gt;Descr:&lt;/i&gt;&lt;/b&gt;&lt;/font&gt;&lt;/div&gt;&lt;div style=&quot;line-height: 120%&quot;&gt;&lt;br&gt;&lt;/div&gt;&lt;div style=&quot;line-height: 120%&quot;&gt;&lt;font color=&quot;#000000&quot;&gt;-0.1 Yearly Corruption&lt;/font&gt;&lt;/div&gt;&lt;div style=&quot;line-height: 120%&quot;&gt;&lt;font color=&quot;#000000&quot;&gt;-5% Diplo Tech Cost&lt;/font&gt;&lt;/div&gt;&lt;div style=&quot;line-height: 120%&quot;&gt;&lt;font color=&quot;#000000&quot;&gt;&lt;b&gt;&lt;i&gt;Home of the Imperial Kannauj:&lt;/i&gt;&lt;/b&gt;&lt;/font&gt;&lt;/div&gt;&lt;div style=&quot;line-height: 120%&quot;&gt;&lt;font color=&quot;#000000&quot;&gt;&lt;b&gt;&lt;i&gt;Descr:&lt;/i&gt;&lt;/b&gt;&lt;/font&gt;&lt;/div&gt;&lt;div style=&quot;line-height: 120%&quot;&gt;&lt;br&gt;&lt;/div&gt;&lt;div style=&quot;line-height: 120%&quot;&gt;&lt;font color=&quot;#000000&quot;&gt;+10% Fire Damage&lt;/font&gt;&lt;/div&gt;&lt;div style=&quot;line-height: 120%&quot;&gt;&lt;font color=&quot;#000000&quot;&gt;+0.5 Yearly Army Tradition&lt;/font&gt;&lt;/div&gt;&lt;div style=&quot;line-height: 120%&quot;&gt;&lt;span style=&quot;line-height: 120%&quot;&gt;&lt;font color=&quot;#000000&quot; style=&quot;font-size: 10px&quot;&gt;&lt;b&gt;&lt;i&gt;Protecting the Sadak-e-Azam:&lt;/i&gt;&lt;/b&gt;&lt;/font&gt;&lt;/span&gt;&lt;/div&gt;&lt;div style=&quot;line-height: 120%&quot;&gt;&lt;span style=&quot;line-height: 120%&quot;&gt;&lt;font color=&quot;#000000&quot; style=&quot;font-size: 10px&quot;&gt;&lt;b&gt;&lt;i&gt;Descr:&lt;/i&gt;&lt;/b&gt;&lt;/font&gt;&lt;/span&gt;&lt;/div&gt;&lt;div style=&quot;line-height: 120%&quot;&gt;&lt;br&gt;&lt;/div&gt;&lt;div style=&quot;line-height: 120%&quot;&gt;+15% Global Trade Power Modifier&lt;/div&gt;&lt;div style=&quot;line-height: 120%&quot;&gt;&lt;font color=&quot;#000000&quot; face=&quot;sans-serif&quot;&gt;&lt;b&gt;&lt;i&gt;The Abode of Peace:&lt;/i&gt;&lt;/b&gt;&lt;/font&gt;&lt;/div&gt;&lt;div style=&quot;line-height: 120%&quot;&gt;&lt;font color=&quot;#000000&quot; face=&quot;sans-serif&quot;&gt;&lt;b&gt;&lt;i&gt;Descr:&lt;/i&gt;&lt;/b&gt;&lt;/font&gt;&lt;/div&gt;&lt;div style=&quot;line-height: 120%&quot;&gt;&lt;br&gt;&lt;/div&gt;&lt;div style=&quot;line-height: 120%&quot;&gt;&lt;font color=&quot;#000000&quot; face=&quot;sans-serif&quot;&gt;-10% Development Cost&lt;/font&gt;&lt;/div&gt;&lt;div style=&quot;line-height: 120%&quot;&gt;&lt;font color=&quot;#000000&quot; face=&quot;sans-serif&quot;&gt;-0.2 Monthly War Exhaustion&lt;/font&gt;&lt;/div&gt;&lt;div style=&quot;line-height: 120%&quot;&gt;&lt;font color=&quot;#000000&quot; face=&quot;sans-serif&quot;&gt;&lt;b&gt;&lt;i&gt;Khayal and Ragas:&lt;/i&gt;&lt;/b&gt;&lt;/font&gt;&lt;/div&gt;&lt;div style=&quot;line-height: 120%&quot;&gt;&lt;font color=&quot;#000000&quot; face=&quot;sans-serif&quot;&gt;&lt;b&gt;&lt;i&gt;Descr:&lt;/i&gt;&lt;/b&gt;&lt;/font&gt;&lt;/div&gt;&lt;div style=&quot;line-height: 120%&quot;&gt;&lt;br&gt;&lt;/div&gt;&lt;div style=&quot;line-height: 120%&quot;&gt;&lt;font color=&quot;#000000&quot; face=&quot;sans-serif&quot;&gt;-2 Global Unrest&lt;/font&gt;&lt;/div&gt;&lt;div style=&quot;line-height: 120%&quot;&gt;&lt;font color=&quot;#000000&quot; face=&quot;sans-serif&quot;&gt;&lt;b&gt;&lt;i&gt;Ambitions:&lt;/i&gt;&lt;/b&gt;&lt;/font&gt;&lt;/div&gt;&lt;div style=&quot;line-height: 120%&quot;&gt;&lt;font color=&quot;#000000&quot; face=&quot;sans-serif&quot;&gt;-25% Infantry Cost&lt;/font&gt;&lt;/div&gt;&lt;p&gt;&lt;/p&gt;" style="whiteSpace=wrap;html=1;fillColor=#f5f5f5;strokeColor=#666666;fontSize=10;align=left;verticalAlign=top;fontColor=#333333;" parent="1" vertex="1">
          <mxGeometry x="400" y="2360" width="400" height="1160" as="geometry" />
        </mxCell>
        <mxCell id="3uolakIjFDOhVFgLM8jF-5" value="&lt;p style=&quot;line-height: 120%&quot;&gt;&lt;/p&gt;&lt;div style=&quot;font-size: 10px ; line-height: 14.4px&quot;&gt;&lt;span style=&quot;line-height: 14.4px ; font-size: 10px&quot;&gt;&lt;b&gt;Gujarat Ideas&lt;/b&gt;&lt;br style=&quot;font-size: 10px&quot;&gt;&lt;b&gt;&lt;i&gt;Traditions:&lt;/i&gt;&lt;/b&gt;&lt;/span&gt;&lt;/div&gt;&lt;div style=&quot;font-size: 10px ; line-height: 14.4px&quot;&gt;+15% Global Trade Power Modifier&lt;/div&gt;&lt;div style=&quot;font-size: 10px ; line-height: 14.4px&quot;&gt;+20% Global Sailors Modifier&lt;/div&gt;&lt;div style=&quot;font-size: 10px ; line-height: 14.4px&quot;&gt;&lt;b&gt;&lt;i&gt;A Flag in Every Port:&amp;nbsp;&lt;/i&gt;&lt;/b&gt;&lt;/div&gt;&lt;div style=&quot;font-size: 10px ; line-height: 14.4px&quot;&gt;&lt;b&gt;&lt;i&gt;Descr:&lt;/i&gt;&lt;/b&gt;&lt;/div&gt;&lt;br&gt;&lt;div style=&quot;line-height: 14.4px&quot;&gt;+25% Trade Range&lt;/div&gt;&lt;div style=&quot;line-height: 14.4px&quot;&gt;+4 Placed Merchant Power&lt;/div&gt;&lt;b&gt;&lt;i&gt;New T&lt;font style=&quot;font-size: 10px&quot; color=&quot;#000000&quot;&gt;&lt;span style=&quot;font-family: sans-serif&quot;&gt;háná&lt;/span&gt;&lt;span style=&quot;font-family: sans-serif&quot;&gt;s&lt;/span&gt;&lt;/font&gt;&lt;/i&gt;&lt;/b&gt;&lt;b&gt;&lt;i&gt;:&lt;/i&gt;&lt;/b&gt;&lt;b&gt;&lt;i&gt;&lt;font style=&quot;font-size: 10px&quot; color=&quot;#000000&quot;&gt;&lt;span style=&quot;font-family: sans-serif&quot;&gt;&lt;br&gt;&lt;/span&gt;&lt;/font&gt;&lt;/i&gt;&lt;/b&gt;&lt;div style=&quot;line-height: 14.4px&quot;&gt;&lt;b&gt;&lt;i&gt;Descr:&amp;nbsp;&lt;/i&gt;&lt;/b&gt;&lt;/div&gt;&lt;div style=&quot;line-height: 120%&quot;&gt;&lt;br&gt;&lt;/div&gt;&lt;div style=&quot;line-height: 120%&quot;&gt;&lt;span style=&quot;color: rgb(0 , 0 , 0)&quot;&gt;-25% Fort Maintenance Modifier&lt;/span&gt;&lt;/div&gt;&lt;div style=&quot;line-height: 120%&quot;&gt;&lt;div style=&quot;line-height: 12px&quot;&gt;&lt;font color=&quot;#000000&quot; face=&quot;sans-serif&quot;&gt;&lt;b&gt;&lt;i&gt;Jain Bureaucracy:&lt;/i&gt;&lt;/b&gt;&lt;/font&gt;&lt;/div&gt;&lt;div style=&quot;line-height: 12px&quot;&gt;&lt;font color=&quot;#000000&quot; face=&quot;sans-serif&quot;&gt;&lt;b&gt;&lt;i&gt;Descr:&lt;/i&gt;&lt;/b&gt;&lt;/font&gt;&lt;/div&gt;&lt;div style=&quot;line-height: 12px&quot;&gt;&lt;br&gt;&lt;/div&gt;&lt;div style=&quot;line-height: 12px&quot;&gt;&lt;font color=&quot;#000000&quot; face=&quot;sans-serif&quot;&gt;+0.10 Inflation Reduction Modifier&lt;/font&gt;&lt;/div&gt;&lt;/div&gt;&lt;div style=&quot;line-height: 120%&quot;&gt;&lt;font color=&quot;#000000&quot;&gt;&lt;b&gt;&lt;i&gt;Garba!:&lt;/i&gt;&lt;/b&gt;&lt;/font&gt;&lt;/div&gt;&lt;div style=&quot;line-height: 120%&quot;&gt;&lt;font color=&quot;#000000&quot;&gt;&lt;b&gt;&lt;i&gt;Descr:&lt;/i&gt;&lt;/b&gt;&lt;/font&gt;&lt;/div&gt;&lt;div style=&quot;line-height: 120%&quot;&gt;&lt;b&gt;(INGAME)&amp;nbsp;&lt;/b&gt;&lt;br&gt;&lt;/div&gt;&lt;div style=&quot;line-height: 120%&quot;&gt;&lt;font color=&quot;#000000&quot;&gt;+50% Religious Unity&lt;/font&gt;&lt;/div&gt;&lt;div style=&quot;line-height: 120%&quot;&gt;&lt;font color=&quot;#000000&quot;&gt;&lt;b&gt;&lt;i&gt;Connections to The Caliph:&lt;/i&gt;&lt;/b&gt;&lt;/font&gt;&lt;/div&gt;&lt;div style=&quot;line-height: 120%&quot;&gt;&lt;font color=&quot;#000000&quot;&gt;&lt;b&gt;&lt;i&gt;Descr:&lt;/i&gt;&lt;/b&gt;&lt;/font&gt;&lt;/div&gt;&lt;div style=&quot;line-height: 120%&quot;&gt;&lt;br&gt;&lt;/div&gt;&lt;div style=&quot;line-height: 120%&quot;&gt;&lt;font color=&quot;#000000&quot;&gt;+1 Diplomatic Reputation&lt;/font&gt;&lt;/div&gt;&lt;div style=&quot;line-height: 120%&quot;&gt;&lt;font color=&quot;#000000&quot;&gt;-25% Envoy Travel Time&lt;/font&gt;&lt;/div&gt;&lt;div style=&quot;line-height: 120%&quot;&gt;&lt;b&gt;&lt;i&gt;Khalsa Tributes:&lt;/i&gt;&lt;/b&gt;&lt;/div&gt;&lt;div style=&quot;line-height: 120%&quot;&gt;&lt;span style=&quot;line-height: 120%&quot;&gt;&lt;font color=&quot;#000000&quot; style=&quot;font-size: 10px&quot;&gt;&lt;b&gt;&lt;i&gt;Descr:&lt;/i&gt;&lt;/b&gt;&lt;/font&gt;&lt;/span&gt;&lt;/div&gt;&lt;div style=&quot;line-height: 120%&quot;&gt;&lt;br&gt;&lt;/div&gt;&lt;div style=&quot;line-height: 120%&quot;&gt;+10% Global Trade Goods Size Modifier&lt;/div&gt;&lt;div style=&quot;line-height: 120%&quot;&gt;&lt;font color=&quot;#000000&quot; face=&quot;sans-serif&quot;&gt;&lt;b&gt;&lt;i&gt;Flow Into Arabia:&lt;/i&gt;&lt;/b&gt;&lt;/font&gt;&lt;/div&gt;&lt;div style=&quot;line-height: 120%&quot;&gt;&lt;font color=&quot;#000000&quot; face=&quot;sans-serif&quot;&gt;&lt;b&gt;&lt;i&gt;Descr:&lt;/i&gt;&lt;/b&gt;&lt;/font&gt;&lt;/div&gt;&lt;div style=&quot;line-height: 120%&quot;&gt;&lt;br&gt;&lt;/div&gt;&lt;div style=&quot;line-height: 120%&quot;&gt;&lt;font color=&quot;#000000&quot; face=&quot;sans-serif&quot;&gt;+15% Trade Efficiency&lt;/font&gt;&lt;/div&gt;&lt;div style=&quot;line-height: 120%&quot;&gt;&lt;font color=&quot;#000000&quot; face=&quot;sans-serif&quot;&gt;+10% Heavy Ship Combat Ability&lt;/font&gt;&lt;/div&gt;&lt;div style=&quot;line-height: 120%&quot;&gt;&lt;font color=&quot;#000000&quot; face=&quot;sans-serif&quot;&gt;&lt;b&gt;&lt;i&gt;Ambitions:&lt;/i&gt;&lt;/b&gt;&lt;/font&gt;&lt;/div&gt;&lt;div style=&quot;line-height: 120%&quot;&gt;&lt;font color=&quot;#000000&quot; face=&quot;sans-serif&quot;&gt;+10% Infantry Combat Ability&lt;/font&gt;&lt;/div&gt;&lt;p&gt;&lt;/p&gt;" style="whiteSpace=wrap;html=1;fillColor=#f5f5f5;strokeColor=#666666;fontSize=10;align=left;verticalAlign=top;fontColor=#333333;" parent="1" vertex="1">
          <mxGeometry x="880" y="2360" width="400" height="1160" as="geometry" />
        </mxCell>
        <mxCell id="3uolakIjFDOhVFgLM8jF-6" value="&lt;p style=&quot;line-height: 120%&quot;&gt;&lt;/p&gt;&lt;div style=&quot;font-size: 10px ; line-height: 14.4px&quot;&gt;&lt;span style=&quot;line-height: 14.4px ; font-size: 10px&quot;&gt;&lt;b&gt;Malwa Ideas&lt;/b&gt;&lt;br style=&quot;font-size: 10px&quot;&gt;&lt;b&gt;&lt;i&gt;Traditions:&lt;/i&gt;&lt;/b&gt;&lt;/span&gt;&lt;/div&gt;&lt;div style=&quot;font-size: 10px ; line-height: 14.4px&quot;&gt;+15% Land Forcelimit Modifier&lt;/div&gt;&lt;div style=&quot;font-size: 10px ; line-height: 14.4px&quot;&gt;+10% Infantry Combat Ability&lt;/div&gt;&lt;div style=&quot;font-size: 10px ; line-height: 14.4px&quot;&gt;&lt;b&gt;&lt;i&gt;Rajput Recruitment:&amp;nbsp;&lt;/i&gt;&lt;/b&gt;&lt;/div&gt;&lt;div style=&quot;font-size: 10px ; line-height: 14.4px&quot;&gt;&lt;b&gt;&lt;i&gt;Descr:&lt;/i&gt;&lt;/b&gt;&lt;/div&gt;&lt;br&gt;&lt;div style=&quot;line-height: 14.4px&quot;&gt;+20% Global Manpower Modifier&lt;br&gt;&lt;/div&gt;&lt;b&gt;&lt;i&gt;A City of Monuments:&lt;/i&gt;&lt;/b&gt;&lt;b&gt;&lt;i&gt;&lt;font style=&quot;font-size: 10px&quot; color=&quot;#000000&quot;&gt;&lt;span style=&quot;font-family: sans-serif&quot;&gt;&lt;br&gt;&lt;/span&gt;&lt;/font&gt;&lt;/i&gt;&lt;/b&gt;&lt;div style=&quot;line-height: 14.4px&quot;&gt;&lt;b&gt;&lt;i&gt;Descr:&amp;nbsp;&lt;/i&gt;&lt;/b&gt;&lt;/div&gt;&lt;div style=&quot;line-height: 120%&quot;&gt;&lt;br&gt;&lt;/div&gt;&lt;div style=&quot;line-height: 120%&quot;&gt;&lt;span style=&quot;color: rgb(0 , 0 , 0)&quot;&gt;-15% Build Cost&lt;/span&gt;&lt;/div&gt;&lt;div style=&quot;line-height: 120%&quot;&gt;&lt;div style=&quot;line-height: 12px&quot;&gt;&lt;font color=&quot;#000000&quot; face=&quot;sans-serif&quot;&gt;&lt;b&gt;&lt;i&gt;Nimat Nama:&lt;/i&gt;&lt;/b&gt;&lt;/font&gt;&lt;/div&gt;&lt;div style=&quot;line-height: 12px&quot;&gt;&lt;font color=&quot;#000000&quot; face=&quot;sans-serif&quot;&gt;&lt;b&gt;&lt;i&gt;Descr:&lt;/i&gt;&lt;/b&gt;&lt;/font&gt;&lt;/div&gt;&lt;div style=&quot;line-height: 12px&quot;&gt;&lt;br&gt;&lt;/div&gt;&lt;div style=&quot;line-height: 12px&quot;&gt;&lt;font color=&quot;#000000&quot; face=&quot;sans-serif&quot;&gt;+0.5 Yearly Prestige&lt;/font&gt;&lt;/div&gt;&lt;div style=&quot;line-height: 12px&quot;&gt;&lt;font color=&quot;#000000&quot; face=&quot;sans-serif&quot;&gt;-1 Global Unrest&lt;/font&gt;&lt;/div&gt;&lt;/div&gt;&lt;div style=&quot;line-height: 120%&quot;&gt;&lt;font color=&quot;#000000&quot;&gt;&lt;b&gt;&lt;i&gt;Fields of Opium:&lt;/i&gt;&lt;/b&gt;&lt;/font&gt;&lt;/div&gt;&lt;div style=&quot;line-height: 120%&quot;&gt;&lt;font color=&quot;#000000&quot;&gt;&lt;b&gt;&lt;i&gt;Descr:&lt;/i&gt;&lt;/b&gt;&lt;/font&gt;&lt;/div&gt;&lt;div style=&quot;line-height: 120%&quot;&gt;&lt;br&gt;&lt;/div&gt;&lt;div style=&quot;line-height: 120%&quot;&gt;&lt;font color=&quot;#000000&quot;&gt;10% Global Trade Goods Size Modifier&lt;/font&gt;&lt;/div&gt;&lt;div style=&quot;line-height: 120%&quot;&gt;&lt;font color=&quot;#000000&quot;&gt;&lt;b&gt;&lt;i&gt;Recovering Champaner!:&lt;/i&gt;&lt;/b&gt;&lt;/font&gt;&lt;/div&gt;&lt;div style=&quot;line-height: 120%&quot;&gt;&lt;font color=&quot;#000000&quot;&gt;&lt;b&gt;&lt;i&gt;Descr:&lt;/i&gt;&lt;/b&gt;&lt;/font&gt;&lt;/div&gt;&lt;div style=&quot;line-height: 120%&quot;&gt;&lt;br&gt;&lt;/div&gt;&lt;div style=&quot;line-height: 120%&quot;&gt;&lt;font color=&quot;#000000&quot;&gt;+10% Siege Ability&lt;/font&gt;&lt;/div&gt;&lt;div style=&quot;line-height: 120%&quot;&gt;&lt;b&gt;&lt;i&gt;Withstanding the Rajputs:&lt;/i&gt;&lt;/b&gt;&lt;/div&gt;&lt;div style=&quot;line-height: 120%&quot;&gt;&lt;span style=&quot;line-height: 120%&quot;&gt;&lt;font color=&quot;#000000&quot; style=&quot;font-size: 10px&quot;&gt;&lt;b&gt;&lt;i&gt;Descr:&lt;/i&gt;&lt;/b&gt;&lt;/font&gt;&lt;/span&gt;&lt;/div&gt;&lt;div style=&quot;line-height: 120%&quot;&gt;&lt;br&gt;&lt;/div&gt;&lt;div style=&quot;line-height: 120%&quot;&gt;+10% Morale of Armies&lt;/div&gt;&lt;div style=&quot;line-height: 120%&quot;&gt;+10% Fort Defence&lt;/div&gt;&lt;div style=&quot;line-height: 120%&quot;&gt;&lt;font color=&quot;#000000&quot; face=&quot;sans-serif&quot;&gt;&lt;b&gt;&lt;i&gt;A Complex Web:&lt;/i&gt;&lt;/b&gt;&lt;/font&gt;&lt;/div&gt;&lt;div style=&quot;line-height: 120%&quot;&gt;&lt;font color=&quot;#000000&quot; face=&quot;sans-serif&quot;&gt;&lt;b&gt;&lt;i&gt;Descr:&lt;/i&gt;&lt;/b&gt;&lt;/font&gt;&lt;/div&gt;&lt;div style=&quot;line-height: 120%&quot;&gt;&lt;br&gt;&lt;/div&gt;&lt;div style=&quot;line-height: 120%&quot;&gt;&lt;font color=&quot;#000000&quot; face=&quot;sans-serif&quot;&gt;+1 Diplomatic Upkeep&lt;/font&gt;&lt;/div&gt;&lt;div style=&quot;line-height: 120%&quot;&gt;&lt;font color=&quot;#000000&quot; face=&quot;sans-serif&quot;&gt;+15% Improve Relations Modifier&lt;/font&gt;&lt;/div&gt;&lt;div style=&quot;line-height: 120%&quot;&gt;&lt;font color=&quot;#000000&quot; face=&quot;sans-serif&quot;&gt;&lt;b&gt;&lt;i&gt;Ambitions:&lt;/i&gt;&lt;/b&gt;&lt;/font&gt;&lt;/div&gt;&lt;div style=&quot;line-height: 120%&quot;&gt;&lt;font color=&quot;#000000&quot; face=&quot;sans-serif&quot;&gt;-5% Development Cost&lt;/font&gt;&lt;/div&gt;&lt;p&gt;&lt;/p&gt;" style="whiteSpace=wrap;html=1;fillColor=#f5f5f5;strokeColor=#666666;fontSize=10;align=left;verticalAlign=top;fontColor=#333333;" parent="1" vertex="1">
          <mxGeometry x="1360" y="2360" width="400" height="1160" as="geometry" />
        </mxCell>
        <mxCell id="3uolakIjFDOhVFgLM8jF-7" value="&lt;p style=&quot;line-height: 144%&quot;&gt;&lt;/p&gt;&lt;div style=&quot;font-size: 10px ; line-height: 14.4px&quot;&gt;&lt;span style=&quot;line-height: 14.4px ; font-size: 10px&quot;&gt;&lt;b&gt;Bengal Ideas - Habshi&lt;/b&gt;&lt;br style=&quot;font-size: 10px&quot;&gt;&lt;b&gt;&lt;i&gt;Traditions:&lt;/i&gt;&lt;/b&gt;&lt;/span&gt;&lt;/div&gt;&lt;div style=&quot;font-size: 10px ; line-height: 14.4px&quot;&gt;+10% Infantry Combat Ability&lt;/div&gt;-1 Global unrest&lt;div style=&quot;font-size: 10px ; line-height: 14.4px&quot;&gt;&lt;b&gt;&lt;i&gt;Foundation of Bangalah:&lt;/i&gt;&lt;/b&gt;&lt;br&gt;&lt;/div&gt;&lt;div style=&quot;font-size: 10px ; line-height: 14.4px&quot;&gt;&lt;b&gt;&lt;i&gt;Descr:&lt;/i&gt;&lt;/b&gt;&lt;/div&gt;&lt;font color=&quot;#000000&quot;&gt;&amp;nbsp;&lt;/font&gt;&lt;br&gt;&lt;div style=&quot;line-height: 14.4px&quot;&gt;-15% Core Creation Cost&lt;/div&gt;&lt;div style=&quot;line-height: 14.4px&quot;&gt;+1 Yearly Legitimacy&lt;/div&gt;&lt;div style=&quot;line-height: 14.4px&quot;&gt;&lt;i&gt;&lt;b&gt;Habshi Generalty:&lt;/b&gt;&lt;/i&gt;&lt;/div&gt;&lt;div style=&quot;line-height: 14.4px&quot;&gt;&lt;b&gt;&lt;i&gt;Descr:&amp;nbsp;&lt;/i&gt;&lt;/b&gt;&lt;/div&gt;&lt;div style=&quot;line-height: 120%&quot;&gt;&lt;font color=&quot;#000000&quot;&gt;&amp;nbsp;&lt;/font&gt;&lt;/div&gt;&lt;div style=&quot;line-height: 120%&quot;&gt;&lt;font color=&quot;#000000&quot;&gt;-33% Leader Cost&lt;/font&gt;&lt;/div&gt;&lt;div style=&quot;line-height: 120%&quot;&gt;&lt;font color=&quot;#000000&quot;&gt;&lt;b&gt;&lt;i&gt;Importation of Slave Soldiers:&lt;/i&gt;&lt;/b&gt;&lt;/font&gt;&lt;/div&gt;&lt;div style=&quot;line-height: 120%&quot;&gt;&lt;font color=&quot;#000000&quot;&gt;&lt;b&gt;&lt;i&gt;Descr:&lt;/i&gt;&lt;/b&gt;&lt;/font&gt;&lt;/div&gt;&lt;div style=&quot;line-height: 120%&quot;&gt;&lt;font color=&quot;#000000&quot;&gt;&lt;b style=&quot;font-size: 10px&quot;&gt;&lt;i&gt;&amp;nbsp;&lt;/i&gt;&lt;/b&gt;&lt;/font&gt;&lt;/div&gt;&lt;div style=&quot;line-height: 120%&quot;&gt;&lt;font color=&quot;#000000&quot;&gt;+20% Manpower Recovery Speed&lt;/font&gt;&lt;/div&gt;&lt;font color=&quot;#000000&quot;&gt;&lt;b&gt;&lt;i&gt;On the Advent of&amp;nbsp;&lt;/i&gt;&lt;/b&gt;&lt;/font&gt;&lt;span&gt;&lt;i&gt;&lt;font color=&quot;#000000&quot;&gt;&lt;b&gt;Bombards&lt;/b&gt;&lt;/font&gt;&lt;/i&gt;&lt;/span&gt;&lt;b style=&quot;color: rgb(0 , 0 , 0)&quot;&gt;&lt;i&gt;:&lt;/i&gt;&lt;/b&gt;&lt;span&gt;&lt;i&gt;&lt;font color=&quot;#000000&quot;&gt;&lt;b&gt;&lt;br&gt;&lt;/b&gt;&lt;/font&gt;&lt;/i&gt;&lt;/span&gt;&lt;div style=&quot;line-height: 120%&quot;&gt;&lt;font color=&quot;#000000&quot;&gt;&lt;b&gt;&lt;i&gt;Descr:&lt;/i&gt;&lt;/b&gt;&lt;/font&gt;&lt;/div&gt;&lt;div style=&quot;line-height: 120%&quot;&gt;&lt;br&gt;&lt;/div&gt;&lt;div style=&quot;line-height: 120%&quot;&gt;&lt;font color=&quot;#000000&quot;&gt;-10% Artillery Cost&lt;/font&gt;&lt;/div&gt;&lt;div style=&quot;line-height: 120%&quot;&gt;&lt;font color=&quot;#000000&quot;&gt;+10% Artillery Damage from Backrow&lt;/font&gt;&lt;/div&gt;&lt;div style=&quot;line-height: 120%&quot;&gt;&lt;span style=&quot;line-height: 120%&quot;&gt;&lt;font color=&quot;#000000&quot; style=&quot;font-size: 10px&quot;&gt;&lt;b&gt;&lt;i&gt;Royal Takas:&lt;/i&gt;&lt;/b&gt;&lt;/font&gt;&lt;/span&gt;&lt;/div&gt;&lt;div style=&quot;line-height: 120%&quot;&gt;&lt;span style=&quot;line-height: 120%&quot;&gt;&lt;font color=&quot;#000000&quot; style=&quot;font-size: 10px&quot;&gt;&lt;b&gt;&lt;i&gt;Descr:&lt;/i&gt;&lt;/b&gt;&lt;/font&gt;&lt;/span&gt;&lt;/div&gt;&lt;div style=&quot;line-height: 120%&quot;&gt;&lt;br&gt;&lt;/div&gt;&lt;div style=&quot;line-height: 120%&quot;&gt;&lt;font color=&quot;#000000&quot; face=&quot;sans-serif&quot;&gt;+10% Global Tax Modifier&lt;/font&gt;&lt;/div&gt;&lt;div style=&quot;line-height: 120%&quot;&gt;&lt;font color=&quot;#000000&quot; face=&quot;sans-serif&quot;&gt;-0.5 Interest Per Annum&lt;/font&gt;&lt;/div&gt;&lt;div style=&quot;line-height: 120%&quot;&gt;&lt;font color=&quot;#000000&quot; face=&quot;sans-serif&quot;&gt;&lt;b&gt;&lt;i&gt;World Renowned Sericulture:&lt;/i&gt;&lt;/b&gt;&lt;/font&gt;&lt;/div&gt;&lt;div style=&quot;line-height: 120%&quot;&gt;&lt;font color=&quot;#000000&quot; face=&quot;sans-serif&quot;&gt;&lt;b&gt;&lt;i&gt;Descr:&lt;/i&gt;&lt;/b&gt;&lt;/font&gt;&lt;/div&gt;&lt;div style=&quot;line-height: 120%&quot;&gt;&lt;br&gt;&lt;/div&gt;&lt;div style=&quot;line-height: 120%&quot;&gt;&lt;div style=&quot;line-height: 12px&quot;&gt;&lt;div style=&quot;line-height: 12px&quot;&gt;&lt;font color=&quot;#000000&quot; face=&quot;sans-serif&quot;&gt;+15% Trade Efficiency&amp;nbsp;&lt;/font&gt;&lt;/div&gt;&lt;div style=&quot;line-height: 12px&quot;&gt;&lt;font color=&quot;#000000&quot; face=&quot;sans-serif&quot;&gt;+10% Production Efficiency&lt;/font&gt;&lt;/div&gt;&lt;/div&gt;&lt;/div&gt;&lt;div style=&quot;line-height: 120%&quot;&gt;&lt;font color=&quot;#000000&quot; face=&quot;sans-serif&quot;&gt;&lt;b&gt;&lt;i&gt;Cracking Down On Local Rajas:&lt;/i&gt;&lt;/b&gt;&lt;/font&gt;&lt;/div&gt;&lt;div style=&quot;line-height: 120%&quot;&gt;&lt;font color=&quot;#000000&quot; face=&quot;sans-serif&quot;&gt;&lt;b&gt;&lt;i&gt;Descr:&lt;/i&gt;&lt;/b&gt;&lt;/font&gt;&lt;/div&gt;&lt;div style=&quot;line-height: 120%&quot;&gt;&lt;br&gt;&lt;/div&gt;&lt;div style=&quot;line-height: 120%&quot;&gt;&lt;font color=&quot;#000000&quot; face=&quot;sans-serif&quot;&gt;-50% Harsh Treatment Cost&lt;/font&gt;&lt;/div&gt;&lt;div style=&quot;line-height: 120%&quot;&gt;&lt;font color=&quot;#000000&quot; face=&quot;sans-serif&quot;&gt;&lt;b&gt;&lt;i&gt;Ambitions:&lt;/i&gt;&lt;/b&gt;&lt;/font&gt;&lt;/div&gt;&lt;div style=&quot;line-height: 120%&quot;&gt;+1 Possible Mil Policy&lt;br&gt;&lt;/div&gt;&lt;p&gt;&lt;/p&gt;" style="whiteSpace=wrap;html=1;fillColor=#f5f5f5;strokeColor=#666666;fontSize=10;align=left;verticalAlign=top;fontColor=#333333;" parent="1" vertex="1">
          <mxGeometry x="-80" y="3600" width="400" height="1160" as="geometry" />
        </mxCell>
      </root>
    </mxGraphModel>
  </diagram>
  <diagram id="NPoELdH6zHYAa5Lus6E0" name="Indian Advisors">
    <mxGraphModel dx="3103" dy="-1712" grid="1" gridSize="10" guides="1" tooltips="1" connect="1" arrows="1" fold="1" page="1" pageScale="1" pageWidth="827" pageHeight="1169" math="0" shadow="0">
      <root>
        <mxCell id="XrhGsM-a7ysfaIarGOT4-0" />
        <mxCell id="XrhGsM-a7ysfaIarGOT4-1" parent="XrhGsM-a7ysfaIarGOT4-0" />
        <mxCell id="XrhGsM-a7ysfaIarGOT4-2" value="&lt;div style=&quot;line-height: 14.4px&quot;&gt;&lt;span style=&quot;line-height: 14.4px&quot;&gt;&lt;b&gt;&lt;font style=&quot;font-size: 12px&quot;&gt;Diwan-i-Ariz #For Delhi Stuff&lt;/font&gt;&lt;/b&gt;&lt;/span&gt;&lt;/div&gt;&lt;div style=&quot;font-size: 10px ; line-height: 14.4px&quot;&gt;&lt;span style=&quot;line-height: 14.4px ; font-size: 10px&quot;&gt;&lt;b style=&quot;font-size: 10px&quot;&gt;&lt;i style=&quot;font-size: 10px&quot;&gt;Descr:&lt;/i&gt;&lt;/b&gt;&lt;/span&gt;&lt;/div&gt;&lt;font style=&quot;font-size: 10px&quot;&gt;Responsible for all military affairs in Delhi, This man controls both military maintenance and the recruiting of men into the Sultan&#39;s army.&lt;/font&gt;&lt;div style=&quot;line-height: 14.4px&quot;&gt;&lt;br&gt;&lt;/div&gt;&lt;div style=&quot;font-size: 10px ; line-height: 14.4px&quot;&gt;&lt;span style=&quot;line-height: 14.4px ; font-size: 10px&quot;&gt;&lt;b style=&quot;font-size: 10px&quot;&gt;&lt;i style=&quot;font-size: 10px&quot;&gt;Modifier:&lt;/i&gt;&lt;/b&gt;&lt;/span&gt;&lt;/div&gt;&lt;div style=&quot;font-size: 10px ; line-height: 14.4px&quot;&gt;-20% Land Maintenance Modifier&lt;/div&gt;&lt;div style=&quot;font-size: 10px ; line-height: 14.4px&quot;&gt;&lt;br&gt;&lt;/div&gt;&lt;div style=&quot;line-height: 14.4px&quot;&gt;&lt;font&gt;&lt;b style=&quot;font-size: 10px&quot;&gt;&lt;i style=&quot;font-size: 10px&quot;&gt;Scaled Modifier:&lt;/i&gt;&lt;/b&gt;&lt;/font&gt;&lt;/div&gt;-10% Recruitment Time&lt;br&gt;&lt;br&gt;&lt;b&gt;&lt;font style=&quot;font-size: 12px&quot;&gt;Sufi Scholar:&lt;/font&gt;&lt;/b&gt;&lt;div style=&quot;line-height: 14.4px&quot;&gt;&lt;span style=&quot;line-height: 14.4px&quot;&gt;&lt;b&gt;&lt;i&gt;Descr:&lt;/i&gt;&lt;/b&gt;&lt;/span&gt;&lt;/div&gt;An Islamic Scholar who has dedicated their life to the study of mysticism and astronomy. Their teachings help spur innovative thought, and have produced great works of theological and narrative classics.&lt;div style=&quot;line-height: 14.4px&quot;&gt;&lt;br&gt;&lt;/div&gt;&lt;div style=&quot;line-height: 14.4px&quot;&gt;&lt;span style=&quot;line-height: 14.4px&quot;&gt;&lt;b&gt;&lt;i&gt;Modifier:&lt;/i&gt;&lt;/b&gt;&lt;/span&gt;&lt;/div&gt;&lt;div style=&quot;line-height: 14.4px&quot;&gt;-10% Administrative Technology Cost Modifier&lt;/div&gt;&lt;div style=&quot;line-height: 14.4px&quot;&gt;&lt;br&gt;&lt;/div&gt;&lt;div style=&quot;line-height: 14.4px&quot;&gt;&lt;b&gt;&lt;i&gt;Scaled Modifier:&lt;/i&gt;&lt;/b&gt;&lt;/div&gt;-0.05 Monthly Piety&lt;br&gt;&lt;br&gt;&lt;div style=&quot;line-height: 14.4px&quot;&gt;&lt;b&gt;&lt;font style=&quot;font-size: 12px&quot;&gt;Jamdani Weaver:&lt;/font&gt;&lt;/b&gt;&lt;div style=&quot;line-height: 14.4px&quot;&gt;&lt;span style=&quot;line-height: 14.4px&quot;&gt;&lt;b&gt;&lt;i&gt;Descr:&lt;/i&gt;&lt;/b&gt;&lt;/span&gt;&lt;/div&gt;A cloth weaver from the city of Dhaka, their expertise in the craft of tapestry and textiles bring great prestige to our harem.&lt;div style=&quot;line-height: 14.4px&quot;&gt;&lt;br&gt;&lt;/div&gt;&lt;div style=&quot;line-height: 14.4px&quot;&gt;&lt;span style=&quot;line-height: 14.4px&quot;&gt;&lt;b&gt;&lt;i&gt;Modifier:&lt;/i&gt;&lt;/b&gt;&lt;/span&gt;&lt;/div&gt;&lt;div style=&quot;line-height: 14.4px&quot;&gt;+10% Global Trade Goods Size Modifier&lt;/div&gt;&lt;div style=&quot;line-height: 14.4px&quot;&gt;&lt;br&gt;&lt;/div&gt;&lt;div style=&quot;line-height: 14.4px&quot;&gt;&lt;b&gt;&lt;i&gt;Scaled Modifier:&lt;/i&gt;&lt;/b&gt;&lt;/div&gt;+0.2 Prestige&lt;br&gt;&lt;/div&gt;&lt;div style=&quot;line-height: 14.4px&quot;&gt;&lt;br&gt;&lt;/div&gt;&lt;div style=&quot;line-height: 14.4px&quot;&gt;&lt;span style=&quot;font-size: 12px&quot;&gt;&lt;b&gt;Saint-General:&lt;/b&gt;&lt;/span&gt;&lt;br&gt;&lt;div style=&quot;line-height: 14.4px&quot;&gt;&lt;span style=&quot;line-height: 14.4px&quot;&gt;&lt;b&gt;&lt;i&gt;Descr:&lt;/i&gt;&lt;/b&gt;&lt;/span&gt;&lt;/div&gt;A man who&#39;s military expertise and large swathes of land has eulogized him into a saint by the local populace, seeing their prowess as a from of Allah incarnate.&lt;div style=&quot;line-height: 14.4px&quot;&gt;&lt;br&gt;&lt;/div&gt;&lt;div style=&quot;line-height: 14.4px&quot;&gt;&lt;span style=&quot;line-height: 14.4px&quot;&gt;&lt;b&gt;&lt;i&gt;Modifier:&lt;/i&gt;&lt;/b&gt;&lt;/span&gt;&lt;/div&gt;&lt;div style=&quot;line-height: 14.4px&quot;&gt;+1 Tolerance of the True Faith&lt;/div&gt;&lt;div style=&quot;line-height: 14.4px&quot;&gt;&lt;br&gt;&lt;/div&gt;&lt;div style=&quot;line-height: 14.4px&quot;&gt;&lt;b&gt;&lt;i&gt;Scaled Modifier:&lt;/i&gt;&lt;/b&gt;&lt;/div&gt;+0.2 Yearly Army Tradition&lt;br&gt;&lt;/div&gt;&lt;div style=&quot;line-height: 14.4px&quot;&gt;&lt;br&gt;&lt;/div&gt;&lt;div style=&quot;line-height: 14.4px&quot;&gt;&lt;b&gt;&lt;font style=&quot;font-size: 12px&quot;&gt;Founder of Gaudi Vaishnavism: #Only for Bengal&lt;/font&gt;&lt;/b&gt;&lt;div style=&quot;line-height: 14.4px&quot;&gt;&lt;span style=&quot;line-height: 14.4px&quot;&gt;&lt;b&gt;&lt;i&gt;Descr:&lt;/i&gt;&lt;/b&gt;&lt;/span&gt;&lt;/div&gt;&lt;div style=&quot;line-height: 14.4px&quot;&gt;&lt;span style=&quot;line-height: 14.4px&quot;&gt;&lt;div style=&quot;line-height: 14.4px&quot;&gt;Chaitanya has made a name for himself among the Brahmins, founding a new sect of Hinduism that many of our closest advisors adhere to. While the Sultan could care less about the customs of Hinduism, Chaitanya has become too important for many Vaishnavas, to the point where his deity status makes him a useful adversary&lt;/div&gt;&lt;/span&gt;&lt;/div&gt;&lt;div style=&quot;line-height: 14.4px&quot;&gt;&lt;br&gt;&lt;/div&gt;&lt;div style=&quot;line-height: 14.4px&quot;&gt;&lt;span style=&quot;line-height: 14.4px&quot;&gt;&lt;b&gt;&lt;i&gt;Modifier:&lt;/i&gt;&lt;/b&gt;&lt;/span&gt;&lt;/div&gt;&lt;div style=&quot;line-height: 14.4px&quot;&gt;-10% Idea Cost&lt;/div&gt;&lt;div style=&quot;line-height: 14.4px&quot;&gt;&lt;br&gt;&lt;/div&gt;&lt;div style=&quot;line-height: 14.4px&quot;&gt;&lt;b&gt;&lt;i&gt;Scaled Modifier:&lt;/i&gt;&lt;/b&gt;&lt;/div&gt;+0.4 Diplomatic Reputation&lt;br&gt;&lt;/div&gt;&lt;div style=&quot;line-height: 14.4px&quot;&gt;&lt;br&gt;&lt;/div&gt;&lt;div style=&quot;line-height: 14.4px&quot;&gt;&lt;b&gt;&lt;font style=&quot;font-size: 12px&quot;&gt;Habshi Captain:&lt;/font&gt;&lt;/b&gt;&lt;div style=&quot;line-height: 14.4px&quot;&gt;&lt;span style=&quot;line-height: 14.4px&quot;&gt;&lt;b&gt;&lt;i&gt;Descr:&lt;/i&gt;&lt;/b&gt;&lt;/span&gt;&lt;/div&gt;Imported from East Africa, this man came with the Habshis, not to fight, but to lead. His ability to command men under coin has made him into the captain he is today, something that the court likes.&lt;div style=&quot;line-height: 14.4px&quot;&gt;&lt;br&gt;&lt;/div&gt;&lt;div style=&quot;line-height: 14.4px&quot;&gt;&lt;span style=&quot;line-height: 14.4px&quot;&gt;&lt;b&gt;&lt;i&gt;Modifier:&lt;/i&gt;&lt;/b&gt;&lt;/span&gt;&lt;/div&gt;&lt;div style=&quot;line-height: 14.4px&quot;&gt;+5% Shock Damage&lt;/div&gt;&lt;div style=&quot;line-height: 14.4px&quot;&gt;&lt;br&gt;&lt;/div&gt;&lt;div style=&quot;line-height: 14.4px&quot;&gt;&lt;b&gt;&lt;i&gt;Scaled Modifier:&lt;/i&gt;&lt;/b&gt;&lt;/div&gt;+2.5% Mercenary Discipline&lt;br&gt;&lt;/div&gt;&lt;div style=&quot;line-height: 14.4px&quot;&gt;&lt;br&gt;&lt;/div&gt;&lt;div style=&quot;line-height: 14.4px&quot;&gt;&lt;b&gt;&lt;font style=&quot;font-size: 12px&quot;&gt;Zamindar:&lt;/font&gt;&lt;/b&gt;&lt;div style=&quot;line-height: 14.4px&quot;&gt;&lt;span style=&quot;line-height: 14.4px&quot;&gt;&lt;b&gt;&lt;i&gt;Descr:&lt;/i&gt;&lt;/b&gt;&lt;/span&gt;&lt;/div&gt;A Muslim Landowner that holds immense sway over its peasantry. Their abundance of men means no shortage for the war-machine, and their connections help secure the Sultan&#39;s position&lt;div style=&quot;line-height: 14.4px&quot;&gt;&lt;br&gt;&lt;/div&gt;&lt;div style=&quot;line-height: 14.4px&quot;&gt;&lt;span style=&quot;line-height: 14.4px&quot;&gt;&lt;b&gt;&lt;i&gt;Modifier:&lt;/i&gt;&lt;/b&gt;&lt;/span&gt;&lt;/div&gt;&lt;div style=&quot;line-height: 14.4px&quot;&gt;+10% Manpower Recovery Speed&lt;/div&gt;&lt;div style=&quot;line-height: 14.4px&quot;&gt;&lt;br&gt;&lt;/div&gt;&lt;div style=&quot;line-height: 14.4px&quot;&gt;&lt;b&gt;&lt;i&gt;Scaled Modifier:&lt;/i&gt;&lt;/b&gt;&lt;/div&gt;-2.5% State Maintenance Modifier&lt;/div&gt;&lt;div style=&quot;line-height: 14.4px&quot;&gt;&lt;br&gt;&lt;/div&gt;" style="whiteSpace=wrap;html=1;fontSize=10;align=left;verticalAlign=top;" parent="XrhGsM-a7ysfaIarGOT4-1" vertex="1">
          <mxGeometry x="-1160" y="3480" width="800" height="1160" as="geometry" />
        </mxCell>
      </root>
    </mxGraphModel>
  </diagram>
</mxfile>
